<svg width="202" height="100" viewBox="0 0 202 100" fill="none" xmlns="http://www.w3.org/2000/svg">
<path d="M100.818 84.2101C82.7906 84.2101 68.1137 69.5382 68.1137 51.4934C68.1137 33.4485 82.7906 18.7871 100.818 18.7871C118.846 18.7871 133.523 33.459 133.523 51.5038C133.523 69.5487 118.846 84.2101 100.818 84.2101ZM100.818 19.8314C83.3647 19.8314 69.1576 34.0333 69.1576 51.5038C69.1576 68.9743 83.3647 83.1658 100.818 83.1658C118.272 83.1658 132.479 68.9639 132.479 51.4934C132.479 34.0229 118.272 19.8314 100.818 19.8314Z" fill="#292E36"/>
<path d="M100.818 90.4754C98.1771 90.4754 95.5361 90.2039 92.9682 89.6818C90.4629 89.1701 87.9994 88.4078 85.6507 87.4158C83.3333 86.4342 81.1098 85.2228 79.0325 83.8235C76.9656 82.4346 75.0345 80.8265 73.2703 79.0617C71.5062 77.2969 69.9091 75.3545 68.5103 73.2973C68.3746 73.0885 68.4268 72.8065 68.6355 72.6708C68.8443 72.535 69.1262 72.5872 69.2619 72.7961C70.6189 74.8115 72.1847 76.7121 73.9071 78.4351C75.6295 80.1581 77.5293 81.7245 79.544 83.0821C81.5796 84.4605 83.7508 85.6405 86.0056 86.5908C88.3021 87.562 90.703 88.3034 93.1457 88.8046C98.1563 89.828 103.47 89.828 108.491 88.8046C110.933 88.3034 113.334 87.562 115.631 86.5908C117.885 85.6405 120.057 84.4501 122.092 83.0821C124.107 81.7141 126.007 80.1581 127.729 78.4351C129.452 76.7121 131.017 74.822 132.374 72.7961C132.51 72.5872 132.792 72.535 133.001 72.6708C133.21 72.8065 133.262 73.0885 133.126 73.2973C131.727 75.365 130.13 77.3073 128.366 79.0617C126.602 80.8265 124.671 82.4242 122.604 83.8235C120.526 85.2333 118.293 86.4446 115.986 87.4158C113.637 88.4078 111.173 89.1701 108.668 89.6818C106.1 90.2039 103.459 90.4754 100.818 90.4754Z" fill="#292E36"/>
<path d="M132.75 30.4097C132.604 30.4097 132.468 30.3366 132.374 30.2113C131.017 28.1959 129.452 26.2953 127.729 24.5723C126.007 22.8492 124.117 21.2829 122.092 19.9253C120.057 18.5469 117.885 17.3669 115.631 16.4166C113.334 15.4454 110.933 14.704 108.491 14.2028C103.48 13.1794 98.1667 13.1794 93.1457 14.2028C90.703 14.704 88.2917 15.4454 86.0056 16.4166C83.7508 17.3773 81.5691 18.5573 79.544 19.9253C77.5293 21.2829 75.6295 22.8492 73.9071 24.5723C72.1847 26.2953 70.6189 28.1959 69.2619 30.2113C69.1262 30.4201 68.8443 30.4724 68.6355 30.3366C68.4268 30.2008 68.3746 29.9189 68.5103 29.71C69.9091 27.6424 71.5062 25.7001 73.2703 23.9457C75.0345 22.1809 76.9761 20.5832 79.0325 19.1839C81.1098 17.7741 83.3437 16.5732 85.6507 15.5916C87.9994 14.5996 90.4629 13.8373 92.9682 13.3151C98.1041 12.2604 103.532 12.2604 108.668 13.3151C111.173 13.8268 113.637 14.5891 115.986 15.5916C118.293 16.5732 120.526 17.7741 122.604 19.1839C124.671 20.5832 126.612 22.1809 128.366 23.9457C130.13 25.7105 131.727 27.6528 133.126 29.71C133.262 29.9189 133.21 30.2008 133.001 30.3366C132.928 30.3784 132.844 30.4097 132.75 30.4097Z" fill="#292E36"/>
<path d="M102.394 63.137C100.046 63.137 97.7597 62.6357 95.5989 61.6541C93.9809 62.406 92.2689 62.7819 90.5048 62.7819C83.8031 62.7819 78.3437 57.3205 78.3437 50.6163C78.3437 44.9146 82.3417 39.9544 87.8846 38.743C90.7866 33.3964 96.3191 30.0966 102.394 30.0966C111.09 30.0966 118.261 36.832 118.846 45.489C121.591 47.1911 123.282 50.209 123.282 53.4358C123.282 58.5945 119.086 62.7924 113.929 62.7924C112.332 62.7924 110.756 62.3747 109.347 61.581C107.155 62.6149 104.806 63.137 102.394 63.137ZM95.5989 60.5055L95.8285 60.6099C100.077 62.6044 104.952 62.5731 109.159 60.5159L109.409 60.3906L109.649 60.5368C110.954 61.32 112.437 61.7377 113.94 61.7377C118.522 61.7377 122.249 58.0097 122.249 53.4254C122.249 50.4701 120.652 47.7133 118.084 46.2304L117.833 46.0842L117.823 45.8023C117.405 37.5735 110.631 31.1199 102.394 31.1199C96.6219 31.1199 91.3712 34.3049 88.6884 39.4323L88.5736 39.6515L88.3335 39.7038C83.1559 40.7376 79.3875 45.3219 79.3875 50.6059C79.3875 56.7357 84.3772 61.7272 90.5048 61.7272C92.1958 61.7272 93.8243 61.3409 95.3692 60.5994L95.5989 60.5055Z" fill="#292E36"/>
<path d="M113.063 72.8904H88.5734V61.5915L89.158 61.6646C89.6695 61.7273 90.0975 61.7586 90.5046 61.7586C92.1957 61.7586 93.8241 61.3722 95.369 60.6308L95.5987 60.5055L95.8284 60.6099C100.077 62.6045 104.952 62.5731 109.159 60.5159L109.409 60.3906L109.649 60.5368C110.557 61.0798 111.549 61.4453 112.624 61.6229L113.063 61.696V72.8904ZM89.6173 71.8462H112.019V62.5731C111.079 62.3747 110.182 62.0406 109.357 61.5706C105.004 63.6174 99.9934 63.6487 95.5987 61.6646C93.9807 62.4165 92.2687 62.7924 90.5046 62.7924C90.2228 62.7924 89.9305 62.782 89.6173 62.7507V71.8462Z" fill="#292E36"/>
<path d="M90.4316 47.0448C90.1393 47.0448 89.9097 46.8151 89.9097 46.5227C89.9097 39.7245 95.4422 34.1899 102.238 34.1899C102.53 34.1899 102.76 34.4197 102.76 34.7121C102.76 35.0045 102.53 35.2342 102.238 35.2342C96.0163 35.2342 90.9535 40.2989 90.9535 46.5227C90.9535 46.8151 90.7239 47.0448 90.4316 47.0448Z" fill="#292E36"/>
<path d="M200.508 37.4058H130.099C129.807 37.4058 129.577 37.176 129.577 36.8836C129.577 36.5912 129.807 36.3615 130.099 36.3615H200.508C200.8 36.3615 201.03 36.5912 201.03 36.8836C201.03 37.176 200.8 37.4058 200.508 37.4058Z" fill="#292E36"/>
<path d="M200.508 66.6348H130.099C129.807 66.6348 129.577 66.405 129.577 66.1126C129.577 65.8203 129.807 65.5905 130.099 65.5905H200.508C200.8 65.5905 201.03 65.8203 201.03 66.1126C201.03 66.405 200.8 66.6348 200.508 66.6348Z" fill="#292E36"/>
<path d="M71.5376 37.4058H1.12832C0.836036 37.4058 0.606384 37.1761 0.606384 36.8837C0.606384 36.5913 0.836036 36.3616 1.12832 36.3616H71.5376C71.8298 36.3616 72.0595 36.5913 72.0595 36.8837C72.0595 37.1761 71.8194 37.4058 71.5376 37.4058Z" fill="#292E36"/>
<path d="M71.5377 66.6348H1.12844C0.836158 66.6348 0.606506 66.405 0.606506 66.1126C0.606506 65.8203 0.836158 65.5905 1.12844 65.5905H71.5377C71.83 65.5905 72.0596 65.8203 72.0596 66.1126C72.0596 66.405 71.8195 66.6348 71.5377 66.6348Z" fill="#292E36"/>
<path d="M40.4407 54.0727H22.3817C20.962 54.0727 19.8033 52.9135 19.8033 51.4933C19.8033 50.0731 20.962 48.914 22.3817 48.914H41.8604C42.1527 48.914 42.3823 49.1437 42.3823 49.4361C42.3823 49.7285 42.1527 49.9583 41.8604 49.9583H22.3817C21.5362 49.9583 20.8472 50.6475 20.8472 51.4933C20.8472 52.3392 21.5362 53.0284 22.3817 53.0284H40.4303C40.7226 53.0284 40.9522 53.2581 40.9522 53.5505C40.9522 53.8429 40.7226 54.0727 40.4407 54.0727Z" fill="#292E36"/>
<path d="M10.899 58.8655C5.41863 58.8655 0.950859 55.5656 0.950859 51.5035C0.950859 47.4413 5.4082 44.1414 10.899 44.1414C16.3793 44.1414 20.8471 47.4413 20.8471 51.5035C20.8471 55.5656 16.3897 58.8655 10.899 58.8655ZM10.899 45.1752C5.99277 45.1752 1.99473 48.0156 1.99473 51.493C1.99473 54.9704 5.99277 57.8108 10.899 57.8108C15.8052 57.8108 19.8032 54.9704 19.8032 51.493C19.8032 48.0156 15.8156 45.1752 10.899 45.1752Z" fill="#292E36"/>
<path d="M178.096 54.0727H160.048C159.755 54.0727 159.526 53.8429 159.526 53.5505C159.526 53.2581 159.755 53.0284 160.048 53.0284H178.096C178.942 53.0284 179.631 52.3392 179.631 51.4933C179.631 50.6475 178.942 49.9583 178.096 49.9583H158.618C158.325 49.9583 158.096 49.7285 158.096 49.4361C158.096 49.1437 158.325 48.914 158.618 48.914H178.096C179.516 48.914 180.675 50.0731 180.675 51.4933C180.675 52.9135 179.516 54.0727 178.096 54.0727Z" fill="#292E36"/>
<path d="M188.002 56.3802H184.516C181.823 56.3802 179.631 54.1872 179.631 51.493C179.631 48.7988 181.823 46.6059 184.516 46.6059H188.002V56.3802ZM184.516 47.6606C182.397 47.6606 180.674 49.3836 180.674 51.5035C180.674 53.6233 182.397 55.3464 184.516 55.3464H186.959V47.671H184.516V47.6606Z" fill="#292E36"/>
<path d="M199.005 47.6608H187.491C187.199 47.6608 186.969 47.4311 186.969 47.1387C186.969 46.8463 187.199 46.6166 187.491 46.6166H199.005C199.297 46.6166 199.527 46.8463 199.527 47.1387C199.527 47.4311 199.287 47.6608 199.005 47.6608Z" fill="#292E36"/>
<path d="M199.005 52.0155H187.491C187.199 52.0155 186.969 51.7857 186.969 51.4933C186.969 51.2009 187.199 50.9712 187.491 50.9712H199.005C199.297 50.9712 199.527 51.2009 199.527 51.4933C199.527 51.7857 199.287 52.0155 199.005 52.0155Z" fill="#292E36"/>
<path d="M199.005 56.3805H187.491C187.199 56.3805 186.969 56.1508 186.969 55.8584C186.969 55.566 187.199 55.3362 187.491 55.3362H199.005C199.297 55.3362 199.527 55.566 199.527 55.8584C199.527 56.1508 199.287 56.3805 199.005 56.3805Z" fill="#292E36"/>
<path d="M68.719 58.8657H59.5955C59.3033 58.8657 59.0736 58.636 59.0736 58.3436C59.0736 58.0512 59.3033 57.8215 59.5955 57.8215H68.719C69.0113 57.8215 69.2409 58.0512 69.2409 58.3436C69.2409 58.636 69.0113 58.8657 68.719 58.8657Z" fill="#292E36"/>
<path d="M68.2703 51.0861H50.9525C50.6602 51.0861 50.4305 50.8564 50.4305 50.564C50.4305 50.2716 50.6602 50.0419 50.9525 50.0419H68.2703C68.5626 50.0419 68.7923 50.2716 68.7923 50.564C68.7923 50.8564 68.5626 51.0861 68.2703 51.0861Z" fill="#292E36"/>
<path d="M69.4185 43.3063H60.295C60.0027 43.3063 59.7731 43.0765 59.7731 42.7842C59.7731 42.4918 60.0027 42.262 60.295 42.262H69.4185C69.7108 42.262 69.9404 42.4918 69.9404 42.7842C69.9404 43.0765 69.7108 43.3063 69.4185 43.3063Z" fill="#292E36"/>
<path d="M68.7087 54.9707H55.1592C54.8669 54.9707 54.6373 54.7409 54.6373 54.4485C54.6373 54.1561 54.8669 53.9264 55.1592 53.9264H68.7087C69.001 53.9264 69.2306 54.1561 69.2306 54.4485C69.2306 54.7409 68.9905 54.9707 68.7087 54.9707Z" fill="#292E36"/>
<path d="M68.6357 47.139H55.0862C54.7939 47.139 54.5643 46.9092 54.5643 46.6169C54.5643 46.3245 54.7939 46.0947 55.0862 46.0947H68.6357C68.928 46.0947 69.1576 46.3245 69.1576 46.6169C69.1576 46.9092 68.928 47.139 68.6357 47.139Z" fill="#292E36"/>
<path d="M142.03 44.2357H132.907C132.615 44.2357 132.385 44.006 132.385 43.7136C132.385 43.4212 132.615 43.1915 132.907 43.1915H142.03C142.323 43.1915 142.552 43.4212 142.552 43.7136C142.552 44.006 142.323 44.2357 142.03 44.2357Z" fill="#292E36"/>
<path d="M150.684 52.0153H133.366C133.074 52.0153 132.844 51.7856 132.844 51.4932C132.844 51.2008 133.074 50.9711 133.366 50.9711H150.684C150.976 50.9711 151.206 51.2008 151.206 51.4932C151.206 51.7856 150.976 52.0153 150.684 52.0153Z" fill="#292E36"/>
<path d="M141.331 59.7952H132.207C131.915 59.7952 131.686 59.5655 131.686 59.2731C131.686 58.9807 131.915 58.751 132.207 58.751H141.331C141.623 58.751 141.853 58.9807 141.853 59.2731C141.853 59.5655 141.623 59.7952 141.331 59.7952Z" fill="#292E36"/>
<path d="M146.477 48.1309H132.928C132.635 48.1309 132.406 47.9011 132.406 47.6087C132.406 47.3163 132.635 47.0866 132.928 47.0866H146.477C146.769 47.0866 146.999 47.3163 146.999 47.6087C146.999 47.9011 146.769 48.1309 146.477 48.1309Z" fill="#292E36"/>
<path d="M146.55 55.9625H133.001C132.709 55.9625 132.479 55.7328 132.479 55.4404C132.479 55.148 132.709 54.9183 133.001 54.9183H146.55C146.843 54.9183 147.072 55.148 147.072 55.4404C147.072 55.7328 146.832 55.9625 146.55 55.9625Z" fill="#292E36"/>
<path d="M66.3808 77.5373L61.1718 78.874L60.3472 77.5687L62.4558 75.0729L59.272 75.8665L58.4473 74.5612L61.8817 70.4259L62.675 71.6895L60.462 74.3106L63.8024 73.4752L64.5122 74.603L62.2783 77.2345L65.6396 76.3782L66.3808 77.5373Z" fill="#292E36"/>
<path d="M67.7901 84.8471L66.9759 85.6094L64.1574 82.6228L67.884 79.1141L70.6399 82.038L69.8256 82.8003L68.0615 80.9207L67.4143 81.5159L68.9697 83.1658L68.1867 83.9072L66.6314 82.2573L65.9529 82.8943L67.7901 84.8471Z" fill="#292E36"/>
<path d="M72.5604 83.7715L73.6982 84.6696L71.2347 87.7815L73.145 89.2956L72.4351 90.1937L69.387 87.7815L72.5604 83.7715Z" fill="#292E36"/>
<path d="M76.0051 92.2091C75.7441 91.8019 75.6084 91.3633 75.5979 90.8933C75.5875 90.4234 75.7023 89.964 75.9633 89.5149C76.2138 89.0659 76.5479 88.7317 76.955 88.502C77.3621 88.2722 77.8109 88.1574 78.3016 88.1783C78.7817 88.1887 79.2619 88.3349 79.7212 88.596C80.1283 88.8257 80.4519 89.1077 80.7025 89.4418C80.953 89.776 81.0991 90.131 81.1618 90.5279L79.9404 90.7889C79.8465 90.2772 79.596 89.9013 79.1889 89.6716C78.9488 89.5358 78.6982 89.4627 78.4581 89.4627C78.2076 89.4627 77.978 89.5254 77.7692 89.6611C77.5604 89.7969 77.383 89.9848 77.2368 90.2355C77.0907 90.4861 77.0176 90.7367 77.0176 90.9873C77.0176 91.238 77.0698 91.4677 77.2055 91.687C77.3308 91.8958 77.5187 92.0734 77.7588 92.2091C78.1659 92.4389 78.6147 92.4702 79.1053 92.2822L79.4916 93.4622C79.1262 93.6084 78.7295 93.6606 78.3224 93.6189C77.9153 93.5771 77.5082 93.4413 77.1011 93.2116C76.6209 92.9505 76.2556 92.6164 76.0051 92.2091Z" fill="#292E36"/>
<path d="M83.02 95.6761C82.6964 95.3107 82.4772 94.9034 82.3832 94.4335C82.2893 93.974 82.331 93.5041 82.4981 93.0237C82.6651 92.5434 82.9365 92.157 83.3123 91.8646C83.6777 91.5722 84.1056 91.3842 84.5858 91.3111C85.066 91.238 85.5671 91.3007 86.0786 91.4782C86.5901 91.6557 87.0076 91.9377 87.3312 92.2927C87.6548 92.6582 87.874 93.0655 87.968 93.5354C88.0619 94.0053 88.0202 94.4648 87.8531 94.9452C87.6861 95.4255 87.4147 95.8119 87.0389 96.1043C86.6736 96.4071 86.2456 96.5847 85.7654 96.6578C85.2852 96.7309 84.7842 96.6682 84.2831 96.4907C83.7612 96.3027 83.3436 96.0312 83.02 95.6761ZM85.4 95.4255C85.6401 95.3838 85.8489 95.2793 86.0472 95.1122C86.2351 94.9452 86.3813 94.7259 86.4752 94.4544C86.5692 94.1829 86.6005 93.9218 86.5587 93.6712C86.517 93.4205 86.423 93.2012 86.2665 93.0237C86.1099 92.8462 85.9115 92.7 85.6714 92.6165C85.4314 92.5329 85.1913 92.512 84.9512 92.5538C84.7111 92.5956 84.5023 92.7 84.304 92.8671C84.1056 93.0342 83.9699 93.2535 83.876 93.525C83.782 93.7965 83.7507 94.0575 83.7925 94.3082C83.8342 94.5588 83.9282 94.7781 84.0848 94.966C84.2413 95.154 84.4397 95.2898 84.6798 95.3733C84.9199 95.4569 85.16 95.4673 85.4 95.4255Z" fill="#292E36"/>
<path d="M94.8263 98.9029L95.2229 96.2191L93.5841 98.2032L92.9473 98.1092L91.9765 95.8014L91.5694 98.4121L90.2437 98.2032L91.0266 93.149L92.2061 93.3265L93.5319 96.5219L95.7136 93.8695L96.8931 94.0471L96.1311 99.1013L94.8263 98.9029Z" fill="#292E36"/>
<path d="M103.793 98.0467L103.814 99.1641L99.7116 99.2476L99.6072 94.1307L103.616 94.0472L103.637 95.1645L101.058 95.2167L101.079 96.0835L103.355 96.0313L103.376 97.1173L101.1 97.1695L101.121 98.1094L103.793 98.0467Z" fill="#292E36"/>
<path d="M111.466 93.9219L109.952 94.3291L109.649 93.2222L114.075 92.0317L114.378 93.1387L112.864 93.5459L113.898 97.3784L112.499 97.7543L111.466 93.9219Z" fill="#292E36"/>
<path d="M119.159 95.2897C118.668 95.2584 118.23 95.1122 117.844 94.8407C117.447 94.5796 117.155 94.2141 116.946 93.7546C116.737 93.2952 116.664 92.8253 116.716 92.3553C116.768 91.8854 116.946 91.4573 117.249 91.0709C117.551 90.6845 117.938 90.3817 118.428 90.1519C118.919 89.9222 119.409 89.8282 119.9 89.8596C120.391 89.8909 120.829 90.0371 121.215 90.3086C121.612 90.5801 121.904 90.9351 122.113 91.4051C122.322 91.875 122.395 92.3344 122.343 92.8044C122.291 93.2743 122.113 93.7024 121.81 94.0888C121.508 94.4752 121.121 94.778 120.62 95.0078C120.14 95.2271 119.65 95.321 119.159 95.2897ZM120.693 93.4518C120.829 93.2534 120.913 93.0341 120.934 92.773C120.954 92.5224 120.902 92.2614 120.787 92.0003C120.673 91.7392 120.506 91.5304 120.307 91.3842C120.109 91.238 119.879 91.144 119.639 91.1231C119.399 91.1022 119.159 91.144 118.929 91.2484C118.689 91.3528 118.501 91.5095 118.366 91.7079C118.23 91.9063 118.146 92.1256 118.126 92.3867C118.105 92.6477 118.157 92.8984 118.272 93.1594C118.386 93.4205 118.554 93.6293 118.752 93.7755C118.95 93.9217 119.18 94.0157 119.42 94.0366C119.66 94.0575 119.9 94.0157 120.13 93.9113C120.37 93.8069 120.558 93.6502 120.693 93.4518Z" fill="#292E36"/>
<path d="M130.412 88.6482C129.932 88.7526 129.472 88.7213 129.024 88.5751C128.575 88.4289 128.189 88.1574 127.865 87.771C127.541 87.3846 127.343 86.9565 127.27 86.4866C127.197 86.0166 127.249 85.5572 127.437 85.1081C127.614 84.6591 127.917 84.2518 128.335 83.9072C128.752 83.5626 129.191 83.3329 129.671 83.2285C130.151 83.124 130.61 83.1449 131.059 83.3016C131.508 83.4582 131.894 83.7193 132.218 84.1056C132.541 84.492 132.74 84.9202 132.813 85.3901C132.886 85.86 132.834 86.3195 132.646 86.7685C132.468 87.2175 132.166 87.6248 131.748 87.9694C131.341 88.3245 130.892 88.5438 130.412 88.6482ZM131.393 86.4657C131.477 86.2359 131.487 85.9958 131.445 85.7556C131.393 85.505 131.278 85.2752 131.09 85.0559C130.903 84.8366 130.694 84.68 130.464 84.586C130.234 84.492 129.994 84.4711 129.754 84.5129C129.514 84.5547 129.295 84.6591 129.097 84.8262C128.898 84.9933 128.763 85.1917 128.679 85.4214C128.596 85.6512 128.585 85.8913 128.627 86.1315C128.679 86.3821 128.794 86.6119 128.982 86.8312C129.17 87.0505 129.379 87.2071 129.608 87.3011C129.848 87.3951 130.078 87.416 130.318 87.3742C130.558 87.3324 130.777 87.228 130.976 87.0609C131.174 86.8938 131.32 86.6954 131.393 86.4657Z" fill="#292E36"/>
<path d="M136.174 82.8736C135.59 82.9362 135.005 82.717 134.42 82.2262L132.249 80.4091L133.178 79.3022L135.318 81.0879C135.945 81.61 136.466 81.6205 136.884 81.1297C137.291 80.6389 137.187 80.1272 136.56 79.6051L134.42 77.8194L135.339 76.7229L137.51 78.5399C138.095 79.0307 138.408 79.5633 138.46 80.1585C138.512 80.7537 138.293 81.3385 137.803 81.9129C137.291 82.4977 136.759 82.8109 136.174 82.8736Z" fill="#292E36"/>
<path d="M141.195 74.4986L140.798 75.1773L141.968 75.8666L141.237 77.1197L136.821 74.5403L138.001 72.5145C138.23 72.1177 138.502 71.8044 138.805 71.5851C139.107 71.3658 139.431 71.2509 139.775 71.23C140.109 71.2092 140.454 71.3031 140.778 71.4911C141.101 71.6791 141.331 71.9192 141.487 72.2012C141.634 72.4936 141.696 72.8069 141.675 73.1724L143.617 73.0471L142.834 74.3837L141.195 74.4986ZM139.452 72.692C139.264 72.7547 139.097 72.9217 138.94 73.1724L138.533 73.872L139.828 74.6239L140.235 73.9242C140.381 73.6632 140.443 73.4439 140.402 73.2455C140.37 73.047 140.245 72.8904 140.036 72.7755C139.828 72.6607 139.64 72.6293 139.452 72.692Z" fill="#292E36"/>
<path d="M58.9066 23.3086C58.9692 23.8203 59.2198 24.3737 59.6791 24.9585C59.6999 24.969 59.6895 25.0003 59.6582 25.0421C59.6269 25.0838 59.5956 25.0943 59.5747 25.0838C59.3033 24.8332 58.9484 24.5199 58.5099 24.1231C58.0715 23.7367 57.7375 23.4548 57.5078 23.2773C57.4661 23.2459 57.4661 23.2146 57.4974 23.1728C57.5287 23.1311 57.56 23.1206 57.6018 23.152C57.7688 23.2773 58.0089 23.1311 58.322 22.7029C58.8335 22.0659 59.4077 21.3245 60.0653 20.4473C60.3993 19.9983 60.7438 19.5284 61.0987 19.0167L61.6624 18.2335C61.8816 17.9515 62.0173 17.7218 62.08 17.5652C62.1426 17.4085 62.1322 17.2623 62.0487 17.137C62.0278 17.1057 62.0278 17.0744 62.0487 17.0326C62.08 16.9908 62.1113 16.9908 62.1322 17.0117C62.3514 17.2101 62.6854 17.5025 63.1447 17.8784C63.604 18.2544 63.9798 18.5572 64.2721 18.7765C64.293 18.7974 64.293 18.8183 64.2617 18.86C64.2304 18.9018 64.199 18.9227 64.1782 18.9123C63.5414 18.5572 62.9777 18.411 62.4975 18.4841C62.0173 18.5572 61.5894 18.8287 61.2344 19.3091C61.0779 19.5179 60.9735 19.6955 60.9422 19.8208C60.9004 19.9461 60.9213 20.0714 60.9839 20.1758C61.057 20.2802 61.1927 20.4056 61.391 20.5622L66.6104 24.4782C66.84 24.6557 67.0279 24.7601 67.1741 24.7915C67.3098 24.8228 67.4559 24.7915 67.5916 24.6766C67.7273 24.5722 67.9152 24.3633 68.1344 24.0709C68.1553 24.05 68.1866 24.05 68.2284 24.0918C68.2701 24.1231 68.291 24.1545 68.2701 24.1753C68.0718 24.4364 67.9152 24.6453 67.79 24.7915L67.0801 25.7104L66.4329 26.598C66.3181 26.7651 66.1615 26.9844 65.9527 27.2664C65.9423 27.2768 65.911 27.2768 65.8692 27.235C65.8275 27.1933 65.8066 27.1724 65.817 27.1619C66.0363 26.8695 66.1824 26.6398 66.245 26.4623C66.3077 26.2952 66.3077 26.149 66.2346 26.0132C66.1615 25.8775 66.0154 25.7313 65.7857 25.5642L60.5455 21.6378C60.3471 21.4916 60.1906 21.3976 60.0757 21.3767C59.9609 21.3454 59.8461 21.3663 59.7313 21.4394C59.6164 21.5125 59.4912 21.6482 59.3346 21.8466C58.9901 22.3166 58.8544 22.7969 58.9066 23.3086Z" fill="#292E36"/>
<path d="M77.2891 15.6335C77.3205 15.6753 77.3309 15.7066 77.31 15.7275C77.0699 15.9364 76.8612 16.1034 76.7046 16.2183L75.9112 16.8762L75.0031 17.6594C74.8778 17.7743 74.7108 17.9309 74.4916 18.1084C74.4707 18.1293 74.4394 18.1189 74.408 18.0667C74.3767 18.0249 74.3663 17.9936 74.3872 17.9727C74.6586 17.7429 74.8465 17.555 74.9404 17.4192C75.0344 17.2835 75.0553 17.1373 75.0135 17.0015C74.9717 16.8658 74.8569 16.6882 74.669 16.4585L72.5604 13.9627L68.8546 17.0955L70.9633 19.5913C71.1407 19.8106 71.3077 19.9463 71.433 20.0194C71.5583 20.0821 71.7044 20.0821 71.861 20.0194C72.0176 19.9463 72.2368 19.8001 72.5082 19.5704C72.5186 19.56 72.55 19.5704 72.5813 19.6122C72.623 19.6539 72.6335 19.6853 72.6126 19.6957C72.3725 19.9046 72.1742 20.0612 72.028 20.1656L71.1199 20.9175L70.337 21.5963C70.2117 21.7216 70.0134 21.8887 69.7733 22.0871C69.7628 22.0975 69.7315 22.0871 69.7002 22.0453C69.6689 22.0035 69.6584 21.9722 69.6689 21.9618C69.9298 21.7425 70.1073 21.5649 70.1908 21.4187C70.2848 21.283 70.3056 21.1368 70.2639 21.001C70.2221 20.8548 70.1073 20.6773 69.9194 20.4685L65.6917 15.4664C65.5038 15.2472 65.3472 15.1114 65.222 15.0487C65.0967 14.9861 64.9506 14.9861 64.794 15.0487C64.6374 15.1114 64.4391 15.2472 64.1781 15.4664C64.1677 15.4769 64.1363 15.4664 64.105 15.4247C64.0633 15.3829 64.0528 15.3516 64.0737 15.3411L64.6583 14.8712C65.0028 14.6102 65.2637 14.3909 65.4516 14.2342C65.7022 14.0254 65.9944 13.7643 66.3285 13.451L66.8922 12.9602C66.9026 12.9498 66.9339 12.9602 66.9652 13.002C66.9966 13.0438 67.007 13.0751 66.9966 13.0855C66.7251 13.3153 66.5477 13.5032 66.4642 13.6494C66.3702 13.7956 66.3494 13.9418 66.3911 14.088C66.4329 14.2342 66.5477 14.4117 66.7251 14.631L68.5937 16.8344L72.2994 13.7016L70.4309 11.4983C70.2534 11.279 70.0864 11.1432 69.9612 11.0701C69.8255 11.0074 69.6793 10.997 69.5227 11.0597C69.3661 11.1223 69.1469 11.2685 68.8755 11.4983C68.8547 11.5191 68.8233 11.5087 68.792 11.4565C68.7503 11.4147 68.7503 11.3834 68.7711 11.3625L69.2931 10.9344C69.648 10.6524 69.9612 10.4018 70.2326 10.1825C70.4309 10.0154 70.6814 9.78566 71.005 9.49327L71.5896 8.98158C71.6105 8.9607 71.6418 8.97114 71.6731 9.02335C71.7149 9.06512 71.7149 9.09645 71.694 9.11734C71.433 9.33663 71.266 9.51415 71.172 9.66035C71.0885 9.79611 71.0677 9.9423 71.1094 10.0781C71.1512 10.2138 71.266 10.3913 71.4435 10.6106L75.6711 15.6126C75.8486 15.8319 76.0156 15.9677 76.1409 16.0408C76.2766 16.1139 76.4123 16.1139 76.5584 16.0408C76.7046 15.9781 76.9133 15.8319 77.1743 15.6126C77.2265 15.5813 77.2578 15.5918 77.2891 15.6335Z" fill="#292E36"/>
<path d="M82.4774 10.5479C82.4983 10.5375 82.5296 10.5271 82.5609 10.5271C82.5923 10.5271 82.6027 10.5375 82.6131 10.5375C82.8741 11.2163 83.1351 11.8115 83.4169 12.3441C83.4482 12.4067 83.4691 12.4694 83.4587 12.5112C83.4482 12.5529 83.4065 12.5947 83.3334 12.6365L77.9157 15.5395C77.8948 15.55 77.8635 15.5395 77.8426 15.4873C77.8113 15.4351 77.8113 15.4038 77.8426 15.3933C78.1245 15.2367 78.3228 15.1114 78.4272 14.9965C78.5316 14.8816 78.5734 14.7563 78.5629 14.6101C78.5525 14.4639 78.469 14.2655 78.3333 14.0149L75.2434 8.24012C75.1077 7.9895 74.9929 7.82241 74.878 7.72843C74.7737 7.63445 74.6379 7.60312 74.4814 7.62401C74.3248 7.65533 74.1056 7.73887 73.8342 7.88507C73.8133 7.89551 73.782 7.88507 73.7611 7.83286C73.7298 7.78064 73.7298 7.74932 73.7611 7.73887L78.9491 4.96114C79.0327 4.91937 79.0953 4.92981 79.137 5.00291L80.0348 6.61107C80.0452 6.63196 80.0243 6.65284 79.9826 6.68417C79.9408 6.7155 79.9095 6.72594 79.8886 6.70505C79.1788 5.8592 78.3541 5.70256 77.3938 6.21425L76.8927 6.48576C76.59 6.6424 76.4125 6.80948 76.3395 6.98701C76.2768 7.16453 76.3082 7.38383 76.4439 7.63445L77.8113 10.1824L79.0118 9.535C79.9304 9.0442 80.2227 8.49074 79.8886 7.87463C79.8782 7.85374 79.8886 7.82241 79.9408 7.80153C79.993 7.78064 80.0139 7.78064 80.0243 7.80153L80.5985 8.898L80.9221 9.48279C81.0786 9.74386 81.2039 9.95271 81.2979 10.1198C81.3083 10.1407 81.2874 10.1616 81.2352 10.1824C81.183 10.2138 81.1517 10.2138 81.1517 10.2033C80.7655 9.48279 80.1078 9.37836 79.1788 9.87961L77.9575 10.4957L79.4711 13.3257C79.6172 13.5972 79.7738 13.7643 79.9304 13.8165C80.0974 13.8687 80.3062 13.8269 80.5671 13.6807L81.183 13.357C82.3 12.7618 82.7175 11.8428 82.4357 10.6002C82.4252 10.5793 82.4461 10.5688 82.4774 10.5479Z" fill="#292E36"/>
<path d="M86.4544 2.94556C86.1726 3.37371 86.016 3.95849 85.9847 4.69992C85.9847 4.7208 85.9638 4.73125 85.9116 4.74169C85.8594 4.75213 85.8281 4.74169 85.8281 4.7208C85.7864 4.35531 85.7133 3.8854 85.6298 3.31105C85.5463 2.73671 85.4732 2.30856 85.4001 2.01617C85.3897 1.9744 85.4106 1.94307 85.4628 1.93263C85.515 1.92218 85.5463 1.93263 85.5567 1.98484C85.6089 2.18325 85.8803 2.22502 86.4023 2.11015C87.1956 1.95351 88.1246 1.7551 89.179 1.50448C89.7218 1.37917 90.2959 1.23297 90.9013 1.07633L91.8304 0.846593C92.1853 0.763052 92.4358 0.679512 92.582 0.595971C92.7281 0.51243 92.8116 0.397561 92.8325 0.251364C92.8325 0.209594 92.8534 0.188709 92.9056 0.178266C92.9473 0.167823 92.9787 0.178266 92.9891 0.220036C93.0308 0.51243 93.1039 0.95102 93.2083 1.53581C93.3127 2.12059 93.4066 2.59051 93.4902 2.956C93.5006 2.98733 93.4797 3.00822 93.4275 3.01866C93.3753 3.0291 93.344 3.01866 93.3231 2.99777C93.0622 2.30856 92.7281 1.83864 92.3106 1.58802C91.893 1.32695 91.392 1.27474 90.8178 1.40005C90.5569 1.46271 90.3794 1.52536 90.2646 1.59846C90.1498 1.67156 90.0871 1.77599 90.0767 1.9013C90.0662 2.02661 90.0871 2.21458 90.1393 2.4652L91.6112 8.82475C91.6738 9.1067 91.7573 9.30511 91.8408 9.43042C91.9243 9.54529 92.06 9.60795 92.2271 9.61839C92.4045 9.62883 92.6759 9.58706 93.0308 9.50352C93.0622 9.49308 93.0726 9.52441 93.0935 9.57662C93.1039 9.62883 93.0935 9.66016 93.0726 9.6706C92.749 9.7437 92.4985 9.79592 92.3106 9.83769L91.1728 10.0883L90.0976 10.3494C89.9097 10.4016 89.6383 10.4747 89.3042 10.5478C89.2833 10.5478 89.2729 10.5269 89.2625 10.4747C89.252 10.4225 89.252 10.3911 89.2729 10.3911C89.6278 10.3076 89.8888 10.2241 90.0454 10.1405C90.202 10.057 90.2959 9.94211 90.3272 9.79592C90.3585 9.64972 90.3377 9.44087 90.275 9.15892L88.7927 2.77848C88.7405 2.5383 88.6779 2.37122 88.6048 2.26679C88.5318 2.16236 88.4274 2.11015 88.3021 2.08926C88.1768 2.06838 87.9785 2.08926 87.7384 2.15192C87.1643 2.23546 86.7467 2.51741 86.4544 2.94556Z" fill="#292E36"/>
<path d="M104.305 8.76218C104.305 8.81439 104.284 8.84572 104.232 8.84572C104.054 8.85616 103.762 8.85616 103.365 8.84572C102.969 8.83528 102.676 8.84572 102.499 8.84572C102.259 8.85616 101.987 8.87705 101.664 8.89793C101.34 8.92926 101.1 8.95015 100.912 8.95015C100.87 8.95015 100.85 8.91882 100.85 8.86661C100.85 8.81439 100.87 8.78307 100.902 8.78307C101.173 8.77262 101.371 8.73085 101.497 8.6682C101.622 8.60554 101.685 8.50112 101.674 8.35492C101.664 8.20872 101.58 7.97898 101.413 7.64482L99.7743 4.59558L97.2168 4.67912L96.2147 7.16446C96.0999 7.44641 96.0477 7.70748 96.0581 7.93721C96.0686 8.27138 96.1938 8.51156 96.4339 8.67864C96.674 8.83528 97.0081 8.91882 97.4361 8.89793C97.4778 8.89793 97.5091 8.91882 97.5091 8.98148C97.5091 9.03369 97.4882 9.06502 97.4465 9.06502C97.2795 9.07546 97.0289 9.07546 96.7053 9.06502C96.3504 9.05457 96.0373 9.06502 95.7659 9.06502C95.5153 9.07546 95.2126 9.09634 94.8786 9.12767C94.5758 9.159 94.3253 9.17989 94.127 9.17989C94.0852 9.17989 94.0539 9.159 94.0539 9.09634C94.0539 9.04413 94.0748 9.0128 94.127 9.0128C94.3879 9.00236 94.6072 8.93971 94.7846 8.83528C94.9621 8.72041 95.1291 8.53244 95.2857 8.26094C95.4527 7.98943 95.6301 7.58217 95.8494 7.03915L98.6469 0.0843674C98.6887 0.0739248 98.7305 0.0530396 98.8035 0.0530396C98.8662 0.0530396 98.9079 0.0634822 98.9183 0.09481L102.624 6.96605C102.979 7.63438 103.271 8.09385 103.501 8.33403C103.731 8.57421 103.971 8.68908 104.232 8.67864C104.273 8.67864 104.294 8.69953 104.305 8.76218ZM97.3734 4.33451L99.6073 4.26141L98.3547 1.92227L97.3734 4.33451Z" fill="#292E36"/>
<path d="M107.384 3.03971C107.509 3.33211 107.687 3.59317 107.916 3.83335C108.136 4.07353 108.449 4.35548 108.846 4.70009C109.273 5.07602 109.608 5.3893 109.848 5.65037C110.088 5.91143 110.276 6.21427 110.422 6.55888C110.557 6.90348 110.599 7.27942 110.526 7.69712C110.453 8.17748 110.255 8.5743 109.952 8.90846C109.649 9.24263 109.253 9.47236 108.762 9.60812C108.271 9.74387 107.739 9.76476 107.165 9.67078C106.768 9.60812 106.382 9.49325 105.985 9.32617C105.589 9.15909 105.296 8.98156 105.098 8.7936C105.025 8.7205 104.994 8.62651 105.004 8.5012L105.265 6.36047V6.35002C105.275 6.30825 105.296 6.29781 105.349 6.29781C105.39 6.29781 105.422 6.3187 105.422 6.36047C105.599 7.18543 105.85 7.87465 106.173 8.4281C106.486 8.98156 106.956 9.31573 107.572 9.40971C107.969 9.47237 108.324 9.42015 108.626 9.24263C108.929 9.0651 109.127 8.7205 109.211 8.20881C109.273 7.80155 109.242 7.42561 109.117 7.09145C108.992 6.75729 108.804 6.46489 108.574 6.21427C108.344 5.96365 108.021 5.66081 107.614 5.28488C107.217 4.91938 106.904 4.62699 106.685 4.37637C106.465 4.12575 106.288 3.85424 106.163 3.53052C106.037 3.2068 105.996 2.85175 106.058 2.45493C106.142 1.97457 106.34 1.58819 106.664 1.2958C106.987 1.0034 107.384 0.815436 107.843 0.721453C108.303 0.627469 108.772 0.617026 109.242 0.700567C109.555 0.75278 109.868 0.836321 110.171 0.940748C110.474 1.05562 110.735 1.17049 110.933 1.2958C111.017 1.33757 111.059 1.37934 111.079 1.43155C111.1 1.47332 111.111 1.53598 111.1 1.59863L110.839 3.50963C110.839 3.54096 110.808 3.5514 110.756 3.56184C110.704 3.57229 110.672 3.5514 110.672 3.50963C110.578 2.9144 110.411 2.36094 110.171 1.84926C109.931 1.33757 109.503 1.03473 108.877 0.930305C108.459 0.867649 108.104 0.930305 107.823 1.12871C107.541 1.32712 107.363 1.6404 107.29 2.05811C107.217 2.4236 107.259 2.73688 107.384 3.03971Z" fill="#292E36"/>
<path d="M114.691 2.9039C114.221 3.11275 113.773 3.52001 113.345 4.12568C113.334 4.14657 113.313 4.14657 113.261 4.12568C113.209 4.1048 113.198 4.08391 113.198 4.06303C113.355 3.72886 113.553 3.30072 113.804 2.76814C114.054 2.23557 114.211 1.83875 114.315 1.5568C114.336 1.51503 114.368 1.49414 114.409 1.51503C114.462 1.53591 114.472 1.56724 114.462 1.60901C114.388 1.80742 114.608 1.99539 115.098 2.17291C115.85 2.47575 116.737 2.80991 117.76 3.17541C118.282 3.36337 118.846 3.55134 119.43 3.74975L120.339 4.06303C120.673 4.18834 120.934 4.25099 121.101 4.26144C121.268 4.27188 121.403 4.21967 121.497 4.1048C121.518 4.07347 121.549 4.06303 121.591 4.08391C121.633 4.1048 121.654 4.12568 121.643 4.15701C121.518 4.41808 121.341 4.83578 121.111 5.3788C120.881 5.93226 120.704 6.38129 120.579 6.72589C120.568 6.75722 120.537 6.75722 120.495 6.73634C120.443 6.71545 120.422 6.69457 120.422 6.66324C120.579 5.9427 120.547 5.36835 120.339 4.92976C120.13 4.49117 119.744 4.16745 119.18 3.96904C118.929 3.87506 118.741 3.83329 118.606 3.83329C118.47 3.83329 118.366 3.8855 118.282 3.97949C118.199 4.07347 118.115 4.24055 118.032 4.48073L115.819 10.621C115.725 10.8925 115.672 11.1014 115.683 11.2475C115.693 11.3937 115.766 11.5086 115.913 11.613C116.059 11.7175 116.299 11.8323 116.654 11.9576C116.685 11.9681 116.685 11.9994 116.664 12.0516C116.643 12.1038 116.622 12.1247 116.591 12.1143C116.278 11.9994 116.038 11.9054 115.86 11.8323L114.775 11.4251L113.731 11.0596C113.543 10.9969 113.282 10.9134 112.948 10.7985C112.927 10.7881 112.927 10.7567 112.948 10.7045C112.969 10.6523 112.99 10.6314 113 10.6314C113.345 10.7567 113.606 10.8298 113.793 10.8403C113.971 10.8507 114.117 10.809 114.221 10.7045C114.326 10.6001 114.43 10.4121 114.524 10.1406L116.748 3.96904C116.831 3.73931 116.873 3.56178 116.862 3.43647C116.852 3.31116 116.8 3.20673 116.706 3.12319C116.601 3.03965 116.434 2.95611 116.194 2.86213C115.672 2.69504 115.161 2.69504 114.691 2.9039Z" fill="#292E36"/>
<path d="M125.767 14.4848C125.788 14.4953 125.809 14.5161 125.819 14.5475C125.829 14.5788 125.84 14.5892 125.829 14.5997C125.381 15.174 125.005 15.7066 124.702 16.2183C124.66 16.2809 124.629 16.3227 124.587 16.3332C124.545 16.3436 124.493 16.3332 124.42 16.2914L119.128 13.169C119.107 13.1586 119.107 13.1273 119.138 13.0751C119.169 13.0229 119.19 13.0124 119.222 13.0229C119.493 13.1899 119.712 13.2839 119.858 13.3152C120.005 13.3466 120.14 13.3152 120.255 13.2317C120.37 13.1377 120.495 12.9706 120.641 12.7305L123.971 7.081C124.117 6.84082 124.201 6.64241 124.222 6.50666C124.243 6.3709 124.201 6.23515 124.097 6.10984C123.992 5.98453 123.804 5.84877 123.543 5.69213C123.522 5.68169 123.522 5.65036 123.554 5.59815C123.585 5.54594 123.606 5.53549 123.637 5.54594L128.71 8.54297C128.794 8.59518 128.815 8.64739 128.763 8.72049L127.855 10.3182C127.844 10.3391 127.813 10.3287 127.771 10.3182C127.719 10.2973 127.698 10.2764 127.708 10.2451C128.063 9.20085 127.771 8.40721 126.832 7.85375L126.341 7.5718C126.049 7.39428 125.809 7.33162 125.631 7.36295C125.443 7.39428 125.276 7.54048 125.13 7.7911L123.658 10.2764L124.827 10.9657C125.725 11.4982 126.351 11.4565 126.696 10.8508C126.706 10.8299 126.738 10.8299 126.79 10.8508C126.832 10.8821 126.852 10.903 126.832 10.9239L126.195 11.9786L125.871 12.5634C125.735 12.8349 125.621 13.0542 125.527 13.2108C125.516 13.2317 125.485 13.2213 125.443 13.1899C125.391 13.1586 125.37 13.1377 125.381 13.1273C125.788 12.4276 125.548 11.8115 124.639 11.2685L123.481 10.5897L121.852 13.357C121.696 13.6285 121.633 13.8374 121.675 14.0045C121.717 14.1715 121.863 14.3282 122.124 14.4848L122.719 14.8399C123.804 15.4873 124.806 15.362 125.725 14.4744C125.715 14.4639 125.735 14.4744 125.767 14.4848Z" fill="#292E36"/>
<path d="M132.615 23.2043C132.573 23.2461 132.542 23.2461 132.5 23.2148C132.364 23.0895 132.155 22.8911 131.873 22.6195C131.592 22.3376 131.383 22.1392 131.247 22.0139C131.07 21.8572 130.861 21.6797 130.61 21.4709C130.36 21.2724 130.172 21.1054 130.036 20.9905C130.005 20.9696 130.015 20.9278 130.047 20.8861C130.088 20.8443 130.12 20.8339 130.151 20.8652C130.349 21.0532 130.527 21.1576 130.663 21.1994C130.798 21.2411 130.913 21.2098 131.007 21.1054C131.101 21.0009 131.205 20.7712 131.31 20.4057L132.249 17.0745L130.349 15.3515L127.896 16.4375C127.614 16.5628 127.395 16.709 127.249 16.8865C127.03 17.1267 126.946 17.3982 127.009 17.6802C127.072 17.9621 127.26 18.2441 127.573 18.5365C127.604 18.5678 127.604 18.6096 127.573 18.6514C127.531 18.6931 127.5 18.6931 127.468 18.6618C127.343 18.5469 127.166 18.3798 126.936 18.1501C126.685 17.8995 126.456 17.6802 126.268 17.5027C126.08 17.3356 125.85 17.1372 125.589 16.9283C125.349 16.7404 125.161 16.5837 125.015 16.448C124.984 16.4166 124.984 16.3749 125.015 16.3331C125.057 16.2913 125.088 16.2809 125.12 16.3122C125.318 16.4897 125.516 16.6046 125.715 16.6464C125.913 16.6881 126.174 16.6673 126.477 16.5837C126.779 16.5002 127.197 16.3331 127.729 16.1034L134.577 13.0646C134.608 13.0541 134.65 13.075 134.702 13.1168C134.755 13.1585 134.765 13.2003 134.755 13.2212L132.636 20.7399C132.427 21.4709 132.322 21.993 132.312 22.3272C132.312 22.6613 132.395 22.9119 132.594 23.0895C132.646 23.1208 132.646 23.1626 132.615 23.2043ZM130.715 15.2053L132.375 16.709L133.095 14.161L130.715 15.2053Z" fill="#292E36"/>
<path d="M138.867 18.6618C138.356 18.5783 137.761 18.6618 137.072 18.9333C137.061 18.9438 137.03 18.9333 136.999 18.8916C136.967 18.8498 136.967 18.8185 136.988 18.808C137.302 18.62 137.709 18.3694 138.21 18.0561C138.7 17.7429 139.066 17.5027 139.295 17.3252C139.337 17.2938 139.368 17.3043 139.4 17.346C139.431 17.3878 139.431 17.4191 139.389 17.4505C139.222 17.5758 139.295 17.8473 139.608 18.2754C140.068 18.9438 140.631 19.7165 141.279 20.5833C141.613 21.0323 141.968 21.5022 142.364 21.9826L142.949 22.7449C143.168 23.0373 143.335 23.2252 143.471 23.3297C143.607 23.4341 143.742 23.4654 143.888 23.4132C143.92 23.4028 143.961 23.4132 143.982 23.4445C144.014 23.4863 144.003 23.5072 143.982 23.5385C143.732 23.6952 143.356 23.9353 142.865 24.2695C142.375 24.6037 141.978 24.8752 141.686 25.0945C141.665 25.1154 141.634 25.0945 141.602 25.0527C141.571 25.0109 141.561 24.9796 141.581 24.9587C142.103 24.447 142.406 23.9458 142.469 23.4654C142.531 22.9851 142.396 22.4943 142.03 22.0243C141.874 21.8155 141.738 21.6693 141.623 21.5962C141.508 21.5231 141.394 21.5022 141.268 21.544C141.143 21.5857 140.986 21.6693 140.778 21.8259L135.548 25.7315C135.318 25.909 135.162 26.0552 135.089 26.1805C135.015 26.3058 135.015 26.452 135.078 26.6191C135.141 26.7862 135.287 27.0159 135.506 27.3083C135.527 27.3292 135.506 27.3605 135.464 27.3918C135.423 27.4232 135.391 27.4336 135.37 27.4127C135.172 27.1517 135.026 26.9324 134.911 26.7757L134.233 25.8359L133.564 24.9587C133.439 24.8021 133.272 24.5932 133.063 24.3113C133.053 24.3008 133.074 24.2695 133.116 24.2382C133.157 24.2068 133.189 24.1964 133.199 24.2068C133.418 24.4992 133.596 24.7081 133.742 24.8125C133.888 24.9274 134.024 24.9692 134.17 24.9274C134.316 24.8961 134.504 24.7916 134.734 24.6245L139.984 20.7086C140.183 20.5624 140.308 20.4371 140.371 20.3326C140.433 20.2282 140.444 20.1133 140.412 19.988C140.381 19.8627 140.287 19.6956 140.13 19.4868C139.796 19.0169 139.379 18.7454 138.867 18.6618Z" fill="#292E36"/>
</svg>
